<?xml version="1.0" standalone="no"?>
<!DOCTYPE svg PUBLIC "-//W3C//DTD SVG 20010904//EN"
 "http://www.w3.org/TR/2001/REC-SVG-20010904/DTD/svg10.dtd">
<svg version="1.0" xmlns="http://www.w3.org/2000/svg"
 width="1024.000000pt" height="1024.000000pt" viewBox="0 0 1024.000000 1024.000000"
 preserveAspectRatio="xMidYMid meet">

<g transform="translate(0.000000,1024.000000) scale(0.100000,-0.100000)"
fill="#000000" stroke="none">
<path d="M0 5120 l0 -5120 5120 0 5120 0 0 5120 0 5120 -5120 0 -5120 0 0
-5120z m5120 2268 l-5 -703 -165 -162 -165 -162 -170 167 c-93 92 -280 275
-415 406 -135 132 -246 243 -248 248 -2 4 91 8 206 8 l209 0 279 -264 279
-263 3 360 2 361 -126 127 -126 128 218 226 c120 124 220 225 223 225 3 0 4
-316 1 -702z m366 330 l29 -33 -32 29 c-31 28 -38 36 -30 36 2 0 16 -15 33
-32z m74 -81 c0 -1 -26 -27 -57 -57 l-58 -55 55 58 c50 53 60 62 60 54z m-120
-120 c0 -2 -10 -12 -22 -23 l-23 -19 19 23 c18 21 26 27 26 19z m-133 -174
c-3 -10 -5 -4 -5 12 0 17 2 24 5 18 2 -7 2 -21 0 -30z m443 -276 c0 -2 -12
-14 -27 -28 l-28 -24 24 28 c23 25 31 32 31 24z m-160 -150 c0 -2 -10 -12 -22
-23 l-23 -19 19 23 c18 21 26 27 26 19z m380 -51 c0 -2 -8 -10 -17 -17 -16
-13 -17 -12 -4 4 13 16 21 21 21 13z m-460 -30 c0 -2 -8 -10 -17 -17 -16 -13
-17 -12 -4 4 13 16 21 21 21 13z m-1626 -253 c39 -37 183 -175 319 -307 l248
-239 -98 -99 c-54 -54 -101 -98 -106 -98 -4 0 -191 176 -415 392 -224 215
-414 397 -422 405 -12 11 19 13 195 13 l208 0 71 -67z m2653 -225 c-166 -161
-353 -342 -415 -402 -62 -61 -118 -112 -125 -114 -7 -1 -56 42 -109 95 l-98
98 318 307 317 307 207 1 206 0 -301 -292z m-977 108 c0 -2 -8 -10 -17 -17
-16 -13 -17 -12 -4 4 13 16 21 21 21 13z m-88 -79 c10 9 18 14 18 11 0 -3 -8
-12 -18 -22 -18 -15 -20 -15 -38 6 -18 23 -18 23 1 6 17 -16 20 -16 37 -1z
m-609 -889 l-258 -258 -270 0 -270 0 525 525 525 525 3 -267 2 -268 -257 -257z
m-1499 555 c45 -43 191 -184 325 -313 l243 -234 -138 -133 -137 -133 -849 2
-850 3 226 215 c124 118 234 216 243 218 12 2 69 -49 163 -143 l145 -145 375
0 c206 0 381 4 388 8 9 6 -78 96 -285 297 -164 159 -332 321 -373 362 l-75 73
259 0 260 0 80 -77z m3906 -124 c-113 -110 -281 -273 -373 -362 -137 -131
-165 -163 -150 -168 10 -4 185 -8 388 -8 l370 -1 145 145 c88 88 151 144 161
143 14 -3 389 -348 456 -419 l22 -24 -852 3 -852 2 -132 133 c-73 72 -133 135
-133 139 0 3 143 144 318 312 l317 306 260 -1 260 0 -205 -200z m-1623 -1209
l-522 -519 -3 265 -2 266 257 253 258 254 267 1 268 0 -523 -520z"/>
</g>
</svg>
